<svg id="레이어_1" data-name="레이어 1" xmlns="http://www.w3.org/2000/svg" viewBox="0 0 418.78 53.44"><path d="M7.57,37.05c2.8,4.28,7.2,9.26,14.66,9.26,5.35,0,9.42-2.17,9.42-8.31,0-5.19-3.17-6.88-11.38-9.26C14.4,27,8,24.34,8,17.46,8,13,10.85,7.83,19.37,7.83c3.81,0,6.09,1.43,7.46,1.43a1.12,1.12,0,0,0,.64-.11l2.59-1,3.44,9.53-.79.53C29.59,13,25.3,9.15,19.16,9.15c-4.29,0-8.26,2-8.26,7.41,0,5.61,5.19,7.73,10.8,9.27,7.15,2,13,4.39,13,11.16,0,7.47-5.51,10.64-12.28,10.64-3.76,0-7.09-1.69-8.31-1.69a7.55,7.55,0,0,0-3.87,1.59L6.51,37.47Z"/><path d="M51.87,46.84V45.52c3.28,0,6-.27,6-2.92V13.17c0-2.22-1.06-3.07-4.44-3.07-6.83,0-9.58,4.08-11.91,7.84l-.74-.43,3.07-8.73H75.21l3.13,9.11-.9.37C74.9,14,73,10.1,66.48,10.1c-3.65,0-5.35.85-5.35,3.07V42.6c0,2.65,2.12,2.92,6,2.92v1.32Z"/><path d="M82.31,8.73H95.75v1.32c-3.76,0-5.08.95-5.08,3.18V35c0,6.46,4.87,10.91,11.75,10.91,5,0,11.17-2.33,11.17-11.12V13.23c0-2.23-1.11-3.18-5.08-3.18V8.73h11.64v1.32c-4,0-5.08.95-5.08,3.18V35.09c0,8.52-5.77,12.54-14.29,12.54-7,0-13.44-4-13.44-13.23V13.23c0-2.23-1-3.18-5-3.18Z"/><path d="M124.18,46.79V45.41c3.7,0,5-1,5-3.86v-28c0-2.43-1.33-3.49-5-3.49V8.73h16.4c12.92,0,18.32,9.53,18.32,19s-5.4,19.06-18.32,19.06Zm8.36-5.24c0,2.85,1.32,3.86,4.23,3.86h3.81c9.8,0,14.72-8.79,14.72-17.68s-4.92-17.68-14.72-17.68h-3.81c-2.91,0-4.23,1.06-4.23,3.49Z"/><path d="M164.67,8.73H179v1.32c-4.13,0-5.5.8-5.5,3.44V42.34c0,2.12,1.37,3.12,5.5,3.12v1.33H164.67V45.46c4.13,0,5.51-1,5.51-3.12V13.49c0-2.64-1.38-3.44-5.51-3.44Z"/><path d="M218,27.78c0,10-5.51,19.85-16.94,19.85-11,0-16.41-9.89-16.41-19.85s5.45-20,16.41-20C212.52,7.83,218,17.78,218,27.78Zm-29.8,0c0,9.27,4.28,18.53,12.86,18.53,9,0,13.28-9.26,13.28-18.53S210.09,9.2,201.09,9.2C192.51,9.2,188.23,18.52,188.23,27.78Z"/><path d="M261.33,8.73v1.32c-4,0-5.19.9-5.19,3.44V37c0,7.26-3.44,10.64-7.52,10.64s-7.36-.9-7.36-4c0-1.48.74-2.91,2.39-2.91s2.64,1.06,2.64,2.81c0,1.43.59,2.64,2.38,2.64,3,0,4.19-3.33,4.19-7.94V13.49c0-2.54-1.17-3.44-5.61-3.44V8.73Z"/><path d="M268.31,8.73H282.6v1.32c-4.12,0-5.5.8-5.5,3.44V42.34c0,2.12,1.38,3.12,5.5,3.12v1.33H268.31V45.46c4.13,0,5.51-1,5.51-3.12V13.49c0-2.64-1.38-3.44-5.51-3.44Z"/><path d="M287.16,8.73h13.39V10c-3.71,0-5,.32-5,1.69a3.74,3.74,0,0,0,.16,1l7.89,27.79,7.25-24.88-.9-3.44c-.53-1.64-1.22-2.17-5.08-2.17V8.73h13.39V10c-3.71,0-5,.32-5,1.69a3.74,3.74,0,0,0,.16,1l7.89,27.79L329,13.65a4.89,4.89,0,0,0,.22-1.43c0-1.48-1.17-2.22-5-2.22V8.73H335.7V10c-3.82,0-4.4.9-5.24,3.65l-9.8,34h-.9L311.51,18,303,47.63h-.9l-9.95-35.46c-.48-1.64-1.38-2.17-5-2.17Z"/><path d="M374.6,27.78c0,10-5.5,19.85-16.94,19.85-11,0-16.41-9.89-16.41-19.85s5.46-20,16.41-20C369.1,7.83,374.6,17.78,374.6,27.78Zm-29.8,0c0,9.27,4.29,18.53,12.86,18.53,9,0,13.29-9.26,13.29-18.53S366.66,9.2,357.66,9.2C349.09,9.2,344.8,18.52,344.8,27.78Z"/><path d="M414.3,27.78c0,10-5.5,19.85-16.94,19.85-10.95,0-16.41-9.89-16.41-19.85s5.46-20,16.41-20C408.8,7.83,414.3,17.78,414.3,27.78Zm-29.8,0c0,9.27,4.29,18.53,12.86,18.53,9,0,13.29-9.26,13.29-18.53S406.36,9.2,397.36,9.2C388.79,9.2,384.5,18.52,384.5,27.78Z"/></svg>